<?xml version="1.0" standalone="no"?>
<!DOCTYPE svg PUBLIC "-//W3C//DTD SVG 20010904//EN"
 "http://www.w3.org/TR/2001/REC-SVG-20010904/DTD/svg10.dtd">
<svg version="1.0" xmlns="http://www.w3.org/2000/svg"
 width="644.000000pt" height="196.000000pt" viewBox="0 0 644.000000 196.000000"
 preserveAspectRatio="xMidYMid meet">

<g transform="translate(0.000000,196.000000) scale(0.100000,-0.100000)"
fill="#ffffff" stroke="none">
<path d="M1954 1632 c-17 -2 -24 -14 -34 -62 -17 -81 -12 -90 53 -90 40 0 58
5 70 18 10 10 17 22 17 25 0 4 10 28 21 52 12 25 19 48 16 51 -6 6 -111 11
-143 6z"/>
<path d="M5241 1427 c-51 -26 -108 -91 -121 -138 -12 -42 -13 -254 -1 -336 15
-104 88 -188 193 -224 52 -17 53 -18 56 -60 3 -34 -2 -47 -24 -70 -15 -16 -44
-34 -63 -39 -20 -5 -165 -10 -323 -10 l-286 0 -31 -31 c-63 -63 -110 -59 778
-59 l810 0 -10 29 c-21 59 -30 61 -341 61 -156 0 -299 5 -319 10 -19 5 -48 23
-63 39 -23 24 -27 36 -24 71 3 41 5 43 45 55 99 29 166 98 195 203 27 99 26
312 -3 379 -26 61 -52 89 -111 119 -43 22 -60 24 -180 24 -118 0 -138 -3 -177
-23z m301 -156 c33 -29 33 -30 36 -138 4 -131 -8 -174 -61 -217 -33 -26 -47
-31 -96 -31 -45 0 -66 6 -94 25 -53 36 -62 67 -62 208 l0 124 33 29 c31 27 37
29 122 29 85 0 91 -2 122 -29z"/>
<path d="M5956 1420 c-66 -26 -103 -64 -123 -126 -35 -111 26 -201 181 -268
46 -20 89 -36 93 -36 5 0 20 -11 33 -25 20 -21 22 -28 12 -50 -27 -58 -111
-55 -193 6 -29 21 -54 39 -56 39 -13 0 -103 -96 -103 -110 0 -24 56 -72 124
-105 215 -105 462 38 417 240 -17 77 -72 124 -191 164 -103 35 -135 53 -138
80 -9 58 82 70 155 21 25 -17 52 -28 62 -25 21 6 91 89 91 108 0 18 -59 59
-123 86 -64 27 -173 28 -241 1z"/>
<path d="M316 1348 c-16 -40 -39 -100 -51 -133 -13 -33 -40 -103 -60 -155 -19
-52 -44 -115 -55 -140 -34 -80 -70 -176 -70 -189 0 -8 25 -11 92 -9 l91 3 17
50 17 50 126 3 126 3 21 -45 c11 -25 20 -50 20 -55 0 -7 34 -11 90 -11 66 0
90 3 90 13 0 12 -11 44 -70 192 -34 86 -54 140 -95 250 -14 39 -30 79 -35 90
-5 11 -17 40 -25 65 -30 86 -36 90 -123 90 l-78 0 -28 -72z m145 -250 c16 -46
29 -89 29 -95 0 -9 -20 -13 -66 -13 -49 0 -65 3 -61 13 2 6 12 39 21 72 21 75
37 117 43 111 3 -2 18 -42 34 -88z"/>
<path d="M740 1340 l0 -80 90 0 90 0 2 -267 3 -268 90 0 90 0 3 268 2 267 90
0 90 0 0 80 0 80 -275 0 -275 0 0 -80z"/>
<path d="M1415 1408 c-3 -7 -4 -164 -3 -348 l3 -335 90 0 90 0 0 345 0 345
-88 3 c-64 2 -89 -1 -92 -10z"/>
<path d="M1750 1070 l0 -350 263 2 262 3 0 75 0 75 -170 5 -170 5 -3 58 -3 57
131 0 130 0 0 70 0 69 -127 3 -128 3 0 55 0 55 165 5 165 5 3 78 3 77 -261 0
-260 0 0 -350z"/>
<path d="M2400 1070 l0 -350 90 0 90 0 2 207 3 207 125 -207 125 -207 92 0 93
0 0 350 0 351 -87 -3 -88 -3 -3 -182 c-1 -101 -6 -183 -10 -183 -4 1 -49 69
-101 153 -52 84 -103 167 -115 184 l-21 33 -97 0 -98 0 0 -350z"/>
<path d="M3170 1070 l0 -352 183 4 c210 4 240 12 330 96 73 68 107 148 107
252 0 108 -33 184 -112 256 -94 85 -105 89 -320 92 l-188 4 0 -352z m364 147
c50 -39 70 -81 70 -149 -1 -109 -83 -182 -196 -176 l-53 3 -3 165 c-1 90 0
171 3 178 4 11 22 13 74 10 56 -3 75 -9 105 -31z"/>
<path d="M3920 1070 l0 -350 260 0 260 0 0 80 0 80 -167 2 -168 3 -3 58 -3 57
125 0 c80 0 127 4 132 11 8 13 13 99 6 117 -3 9 -38 12 -128 12 -122 0 -124 0
-130 24 -3 13 -4 38 -2 57 l3 34 161 3 c183 3 174 -2 174 89 0 78 17 73 -266
73 l-254 0 0 -350z"/>
<path d="M4575 1407 c-3 -6 -4 -163 -3 -347 l3 -335 233 -3 232 -2 0 79 c0 63
-3 80 -16 85 -9 3 -72 6 -140 6 l-124 0 0 249 c0 137 -3 256 -6 265 -5 13 -23
16 -90 16 -59 0 -86 -4 -89 -13z"/>


<path d="M5118 379 c-30 -17 -23 -63 15 -91 90 -69 231 -158 264 -167 21 -6
86 -11 144 -11 116 0 169 -13 294 -75 39 -18 74 -30 78 -26 4 4 6 50 5 101
l-3 94 -30 7 c-16 4 -41 9 -55 13 -14 3 -52 28 -85 56 -73 62 -100 77 -162 90
-73 14 -243 0 -257 -22 -15 -25 11 -48 62 -55 23 -3 39 -9 36 -14 -12 -20 -57
-6 -167 51 -64 33 -118 60 -119 60 -2 0 -11 -5 -20 -11z"/>
</g>
</svg>
